/* XPM */
static char *cloud2[] = {
/* columns rows colors chars-per-pixel */
"64 46 115 2 ",
"   c #97A9B7",
".  c #9AAAB6",
"X  c #95ACBD",
"o  c #9AADBB",
"O  c #9CB0BE",
"+  c #A2AEB7",
"@  c #A3AFB9",
"#  c #A9B0B7",
"$  c #A4B2BC",
"%  c #ABB4BC",
"&  c #AEB8BB",
"*  c #B0B6BD",
"=  c #B3BABD",
"-  c #BCC2BF",
";  c #8EAEC6",
":  c #8BAFCB",
">  c #93AEC2",
",  c #99AFC0",
"<  c #8CB1CD",
"1  c #94B0C5",
"2  c #9CB2C3",
"3  c #94B3CB",
"4  c #9BB4CB",
"5  c #9FB8CD",
"6  c #82B2D6",
"7  c #8AB2D2",
"8  c #93B5D2",
"9  c #98B6D0",
"0  c #96B8D4",
"q  c #9CBCD6",
"w  c #96BBD9",
"e  c #9EBFD9",
"r  c #A3B4C4",
"t  c #ACB5C2",
"y  c #A6B9C5",
"u  c #ACBBC2",
"i  c #A4BACB",
"p  c #ABBDCB",
"a  c #B2B7C1",
"s  c #B5BCC2",
"d  c #B9BEC3",
"f  c #B1BDCB",
"g  c #A3BED4",
"h  c #AABED3",
"j  c #AEC0CE",
"k  c #B6C1C4",
"l  c #BCC2C4",
"z  c #B4C1CC",
"x  c #BDC4C9",
"c  c #BFCBCA",
"v  c #A5C0D4",
"b  c #ADC2D3",
"n  c #A5C1D9",
"m  c #AAC5D9",
"M  c #B4C5D3",
"N  c #B5C8D1",
"B  c #BCCAD4",
"V  c #B4C7D9",
"C  c #B4CADC",
"Z  c #BED0DD",
"A  c #C1C5C6",
"S  c #C3C9C6",
"D  c #C2C6CA",
"F  c #C5CBCB",
"G  c #CACDCD",
"H  c #C7D0CE",
"J  c #CCD2CD",
"K  c #D0D4CD",
"L  c #C2C7D1",
"P  c #C6CBD2",
"I  c #CACED2",
"U  c #C0CDD9",
"Y  c #CACFD8",
"T  c #CDD3D2",
"R  c #CED8D2",
"E  c #C7D1DA",
"W  c #CDD4DA",
"Q  c #CFD9DA",
"!  c #D2D5D3",
"~  c #D5D9D4",
"^  c #DADBD5",
"/  c #D3D6D9",
"(  c #DAD6D8",
")  c #D5DADB",
"_  c #DCDCDB",
"`  c #E2DFDB",
"'  c #DAE0D7",
"]  c #DDE1DD",
"[  c #E0E2D7",
"{  c #E2E3DD",
"}  c #C3D4E1",
"|  c #CDD9E2",
" . c #D3DBE1",
".. c #DCDEE2",
"X. c #E0DFE1",
"o. c #DFE2E1",
"O. c #E5E7E3",
"+. c #E6E4E5",
"@. c #E8E7E4",
"#. c #EAECE7",
"$. c #E8EAEA",
"%. c #EDEAE8",
"&. c #EEECEB",
"*. c #EEECEC",
"=. c #F1EFEA",
"-. c #EFF0EA",
";. c #F0F0EA",
":. c #F2F1EE",
">. c #F4F2EC",
",. c #F5F2EE",
"<. c #F9F6EF",
"1. c #F7F5F0",
"2. c #F7F7F0",
"3. c #F9F6F0",
"4. c #F9F8F1",
/* pixels */
"6 6 6 6 6 6 6 6 6 6 6 6 6 6 6 6 6 6 6 6 6 6 6 6 6 6 6 6 6 6 6 6 6 6 6 6 6 6 6 6 6 6 6 6 6 6 6 6 6 6 6 6 6 6 6 6 6 6 6 6 6 6 6 6 ",
"6 6 6 6 6 6 6 6 6 6 6 6 6 6 6 6 6 6 6 6 6 6 6 6 6 6 6 6 6 6 6 6 6 6 6 6 6 6 6 6 6 6 6 6 6 6 6 6 6 6 6 6 6 6 6 6 6 6 6 6 6 6 6 6 ",
"6 6 6 6 6 6 6 6 6 6 6 6 6 6 6 6 6 6 6 6 6 6 6 6 6 6 6 6 6 6 6 6 6 6 6 6 6 6 6 6 6 6 6 6 6 6 6 6 6 6 6 6 6 6 6 6 6 6 6 6 6 6 6 6 ",
"6 6 6 6 6 6 6 6 6 6 6 6 6 6 6 6 6 6 6 6 6 6 6 6 6 6 6 6 6 6 6 6 6 6 6 6 6 6 6 6 6 6 6 : 6 6 6 6 6 6 6 6 6 6 6 6 6 6 6 6 6 6 6 6 ",
"6 6 6 6 6 6 6 6 6 6 6 6 6 6 6 6 6 6 6 6 6 6 6 6 6 6 6 6 6 6 6 6 6 6 6 6 6 6 6 6 6 6 6 6 6 6 6 6 6 6 6 6 6 6 6 6 6 6 6 6 6 6 6 6 ",
"6 6 6 6 6 6 6 6 6 6 6 6 6 6 6 6 6 6 6 6 6 6 6 6 6 6 6 6 6 6 6 6 6 6 6 6 6 6 6 6 6 6 6 6 6 6 6 6 6 6 6 6 6 6 : 6 6 6 6 6 6 6 6 6 ",
"6 6 6 6 6 6 6 6 6 6 6 6 6 6 6 6 6 6 6 6 6 6 6 6 6 6 6 6 6 6 6 6 6 6 7 m } ..| n 6 6 6 6 6 6 6 6 6 6 6 6 6 6 6 6 6 6 6 6 6 6 6 6 ",
"6 6 6 6 6 6 6 6 6 6 6 6 6 6 6 6 6 6 6 6 6 6 6 6 6 w V } Z w C } C g | %.:.:.1.%...C 7 6 6 6 6 6 6 6 6 6 6 6 6 6 6 6 6 6 6 6 6 6 ",
"6 6 6 6 6 6 6 6 6 6 6 6 6 6 6 6 6 6 6 6 6 6 w Z | +.-.-.%.%.-.4.:.%.:.:.:.1.1.1.%.%.U 6 6 6 6 6 6 6 6 6 6 6 6 6 6 6 6 6 6 6 6 6 ",
"6 6 6 6 6 6 6 6 6 6 6 6 6 6 6 6 6 6 6 6 6 e ..%.:.:.%.-.3.1.4.4.1.:.:.:.%.1.%.:.1.:...7 6 6 6 6 6 6 6 6 6 6 6 6 6 6 6 6 6 6 6 6 ",
"6 6 6 6 6 6 6 6 6 6 6 6 6 6 6 6 6 6 6 7 n ........+.+.%.%.%.4.4.:.:.:.:.-.-.:.%.-.%.o.m w 0 0 6 6 6 6 6 6 6 6 6 6 6 6 6 6 6 6 6 ",
"6 6 6 6 6 6 6 6 6 6 6 6 6 6 6 6 6 6 7 C ....../ ) ..+.:.%.:.1.4.1.:.+.:.-.%.+.O.%.+.+./ H / Q b < 6 6 6 6 6 6 6 6 6 6 6 6 6 6 6 ",
"6 6 6 6 6 6 6 6 6 6 6 6 6 6 6 6 6 6 0 L / ) / L ) ....+.%.-.-.1.:.3.:.=.+.=.+.+.+.O.%.+.T o.o./ p 0 6 6 6 6 6 6 6 6 6 6 6 6 6 6 ",
"6 6 6 6 6 6 6 6 6 6 6 6 6 6 6 6 6 6 h L L L L ) ) ../ _ +.%.-.-.:.:.=.1.:.+.%.+.O.%.%.$.+.%.O.] Y 7 7 6 6 6 6 6 6 6 6 6 6 6 6 6 ",
"6 6 6 6 6 6 6 6 6 6 6 6 6 6 6 6 6 6 h D I / / ..+..._ ..+.+.O.%.+.:.=.=.%.:.+.%.$.-.-.%.O.O.+.o.o.U M M 0 6 6 6 6 6 6 6 6 6 6 6 ",
"6 6 6 6 6 6 6 6 6 6 6 6 6 6 6 6 7 9 f B / +.) ! ../ ) ) _ { +.+.+.=.:.:.=.1.%.+.O.-.;.;.$.+.o.O.%.+.....0 6 6 6 6 6 6 6 6 6 6 6 ",
"6 6 6 6 6 6 6 6 6 6 6 6 6 6 6 7 M L L L _ _ _ ) ` _ _ / ..@.{ { ] O.-.%.-.@.O.$.O.%.%.-.-.O.o.-.%.-.+.o.B 7 7 6 6 6 6 6 6 6 6 6 ",
"6 6 6 6 6 6 6 6 6 6 7 6 6 6 7 q / +.+.@.@.@.%.%.@.%._ @.%.@.-.%.+.] +.+.%.-.O.+.%.O.O.$.O.O.O.o.+.{ o.] ) j 3 6 6 6 6 6 6 6 6 6 ",
"6 6 6 6 6 6 6 6 6 g Y h h U | +.%.;.;.3.1.;.1.1.>.4.>.{ @.%.;.;.@.] ] +.$.#.$.$.O.O.$.O.$.O.] o./ ! / ' T z 3 6 6 6 6 6 6 6 6 6 ",
"6 6 6 6 6 6 6 w V _ X...+.%.;.@.+.%.;.;.%.;.1.4.3.>.=.;.%.%.%.%.%.O.] O.O.#.$.o.o.O.O.O.O.$.O.] H E W H L p 6 6 6 6 6 6 6 6 6 6 ",
"6 6 6 6 6 6 6 } ` ` ` %.=.=.%.%.+.+.@.%.%.%.;.3.;.;.4.>.-.%.%.+.+.{ O.+.+.] ] ] o.O.O.$.{ O.O.~ E B T H B 4 6 6 6 6 6 6 6 6 6 6 ",
"6 6 6 6 6 e n } ( ` _ +.%.{ { X.+._ ( ( ` X.@.;.4.;.;.;.@.%.{ @.{ #.+.{ _ / / ] o.O.-.O.#.@.#.' Q T N i i 7 6 6 6 6 6 6 6 6 6 6 ",
"6 6 6 6 0 W } Z L I ( ( ( ( ` ( _ ! ! ) ) ( @.=.2.;.@.+.+.{ _ _ { ] ] _ W Q ) ] -.-.-.-.#.2.-.#./ Q Q v 6 6 6 6 6 6 6 6 6 6 6 6 ",
"6 6 6 6 0 H R c D x G K I I ( ( ! L ! ! L ! _ +.{ -.{ _ ^ ( ! ) ( ) ! J H H ' ] %.-.2.2.2.2.2.-.+./ ] Q 0 6 6 6 6 6 6 6 6 6 6 6 ",
"6 6 6 6 4 f l l D D L G D I ( I I T I K G ! ^ ^ ( _ _ ^ ( ! ! T T T L J L Q ] { { #.4.2.;.;.-.2.-.-.O.o.B 0 7 0 6 6 6 6 6 6 6 6 ",
"6 6 6 6 4 t a f s x x D D G I G G L G G G I ! ! ! ( ( _ ! ! J G G G S F T / { @.] #.#.2.;.#.-.4.-.-.-.-.] Q M M C 7 6 6 6 6 6 6 ",
"6 6 6 6 2 t u a d d d d x D D A D F G L G ! ! I ^ _ _ ^ _ G F F F F D F H ( { %.] O.%.;.;.#.#.#.O.-.@.{ +.O.' W Q b 6 6 6 6 6 6 ",
"6 6 6 3 t t a a f d d x D x x G I ( ` ( ( ! K ! ! _ ( ^ ! J D D x l l D l H _ { ] ' { @.#.{ { { O.O.O.] ] O.] ' _ c 4 6 6 6 6 6 ",
"6 6 6 r t a a a d L D G G D G ` ` ` { ` ` ^ ! G G T L J D D A l l l l l l c H ( ( J ( R ' ~ ^ ' ] { ] ' ] ' Q T T H z 7 6 6 6 6 ",
"6 6 4 a a a a a d L G G I K ` ` ` ` ` ` ^ ^ ` G A D A D l A l s l l = l l l l H K J F J J J H J ^ ] ~ Q T T H F F F F 5 6 6 6 6 ",
"6 7 4 a a = t t a d d G G G G ( K ^ ( K K ` K A s s l l D F S A l s = s l l l S G S F F F F F F F F F F F F H H H F F j 7 6 6 6 ",
"3 7 7 t s a % @ a a * d A - - A S S S K ` ^ K S x l F ! ^ ] ] ^ ( F l l a s l l l l - l c F F l - - S l F H H H F F x l i 6 6 6 ",
"6 6 6 4 a t r : r @ % a d d s s l A A F ^ ^ ^ K J G ( [ { [ [ { ] J S - = - = l s l l l l l l l s l l l l J R R J N l u i < 6 6 ",
"6 6 6 6 i t r r $ % % a * = * * = = = S K K ^ ^ ^ ^ ' ' [ ' ' ' { K G - - S A l - = = = = l s = = s l l k c R J H H F z 4 6 6 6 ",
"6 6 6 6 6 : 0 o 2 a s # * * * * * = l S S K K ^ ( K ^ K _ K ~ ' ' [ K G ' ' ^ K S - - & = = = = = = c T J J R R H F c l i < 6 6 ",
"6 6 6 6 6 6 < < > t t t # # * * % % = l A G S K J K K K G J J ~ K ' ^ K K ( ^ K S - & & % * % % = k J ] ' ' ' ' H H c k r 3 7 6 ",
"6 6 6 6 6 6 < ; 2 t r ; 2 % = s * = - l S A S S S S S A l S F J K K J F G S G S - & $ $ # # $ $ = - J ~ ' R R R c i k k 2 3 6 6 ",
"6 6 6 6 6 6 6 4 a a r 3 3 2 t = l = = = - - A S S S A - - - l l S S - - S - - & $ # o O O # & $ - l c l F J J c c i < 7 6 6 6 6 ",
"6 6 6 6 6 6 6 3 r r 2 ; > ; > o $ $ % % $ = % - l - = = - & & - - - & $ & O # O O O X O O # + - & - - - - k c J c k i < 6 6 6 6 ",
"6 6 6 6 6 6 6 6 < 7 7 7 ; > X ; X X o o o # o # # # $ % # # o . .   o O o o o o O O X X O O + - % & & & - - k k l k = y 3 6 6 6 ",
"6 6 6 6 6 6 6 6 6 6 6 6 : : : ; X X   .           X ; X X o X X .   X ; 1 X   . X X O O 1 O O 1 O $ O & & O % k u y 4 < < 7 6 6 ",
"6 6 6 6 6 6 6 6 6 6 6 6 6 6 : 6 : < ; X X ; : : ; ; ; < 7 ; ; X X X X X X X X X X X 1 X X 1 1 1 O $ O & & & < 0 < 6 7 6 6 6 6 6 ",
"6 6 6 6 6 6 6 6 6 6 6 6 6 6 6 6 6 6 : 6 : 6 6 6 : 6 6 6 6 6 6 ; : : ;   X . X 1 1 X X 1 X 1 3 1 O O 3 O 3 0 6 6 6 6 6 6 6 6 6 6 ",
"6 6 6 6 6 6 6 6 6 6 6 6 6 6 6 6 6 6 6 6 6 6 6 6 6 6 6 : 6 6 6 6 6 : ; : 1 X : < < : < < < < < < 6 : < 6 : 6 6 6 6 6 6 6 6 6 6 6 ",
"6 6 6 6 6 6 6 6 6 6 6 6 6 6 6 6 6 6 6 6 6 6 6 6 6 6 6 6 6 6 6 6 6 : : 6 : : 6 6 6 6 6 6 6 6 6 6 6 6 6 6 6 6 6 6 6 6 6 6 6 6 6 6 ",
"6 6 6 6 6 6 6 6 6 6 6 6 6 6 6 6 6 6 6 6 6 6 6 6 6 6 6 6 6 6 6 6 6 6 6 6 6 6 6 6 6 6 6 6 6 6 6 6 6 6 6 6 6 6 6 6 6 6 6 6 6 6 6 6 "
};
