/* XPM */
static char *cloud3[] = {
/* columns rows colors chars-per-pixel */
"64 34 79 1 ",
"  c #8BB1CF",
". c #96B6CF",
"X c #99B7CF",
"o c #9BB8CF",
"O c #82B2D7",
"+ c #8BB4D4",
"@ c #8FB8D7",
"# c #93B6D3",
"$ c #98B7D1",
"% c #94B9D5",
"& c #9CBBD3",
"* c #A3BBCE",
"= c #A9BECE",
"- c #A3BDD2",
"; c #A9BED0",
": c #AEC1CE",
"> c #B5C5CE",
", c #B7C9CF",
"< c #A5C1D6",
"1 c #ABC2D3",
"2 c #A5C3D9",
"3 c #ACC5D9",
"4 c #AEC9DB",
"5 c #B4C5D3",
"6 c #B8C7D3",
"7 c #BCCBD5",
"8 c #B0C6D8",
"9 c #B4CADA",
"0 c #BBCCD9",
"q c #BBD0DC",
"w c #C2CED5",
"e c #C0CED9",
"r c #C5D1D6",
"t c #CAD5D6",
"y c #C5D2DA",
"u c #CBD5DA",
"i c #CDD9DD",
"p c #D3DBDD",
"a c #D4DCDD",
"s c #D6DEDC",
"d c #D8DDDE",
"f c #D7E0DE",
"g c #D8E0DD",
"h c #DBE2DE",
"j c #C0D5E1",
"k c #C3D8E4",
"l c #CBDAE1",
"z c #CEDEE5",
"x c #D5DEE0",
"c c #D8DEE0",
"v c #D5E0E2",
"b c #D5E0E5",
"n c #DEE2E0",
"m c #DFE4E1",
"M c #DDE4E2",
"N c #DCE5E5",
"B c #E0E3E3",
"V c #E1E7E3",
"C c #E3E6E4",
"Z c #E5E8E5",
"A c #E7EAE7",
"S c #E7ECE6",
"D c #E2E7E8",
"F c #E6EBE9",
"G c #EAECE9",
"H c #EAEDEA",
"J c #EAF0E9",
"K c #E9F0EC",
"L c #EBF1ED",
"P c #EEF0ED",
"I c #F1F3EE",
"U c #E6EEF1",
"Y c #EEF4F0",
"T c #F3F5F1",
"R c #F0F7F3",
"E c #F2F7F2",
"W c #F5FBF5",
"Q c #F9FAF5",
"! c #FCFDF9",
/* pixels */
"OOOOOOOOOOOOOOOOOOOOOOOOOOO$>o +O+  OOOOOOOOOOOOOOOOOOOOOOOOOOOO",
"OOOOOOOOOOOOOOOOOOOOOOOOOO;ut,>:7q,oOOOOOOOOOOOOOOOOOOOOOOOOOOOO",
"OOOOOOOOOOOOOOOOOOOOOOOOO 7ewaffZZgr.OOOOOOOOOOOOOOOOOOOOOOOOOOO",
"OOOOOOOOOOOOOOOOOOOOOOOOOO#6tZJJJJJf<OOOOOOOOOOOOOOOOOOOOOOOOOOO",
"OOOOOOOOOOOOOOOOOOOOOOO+OOO+6VPTJVftoOOOOOOOOOOOOOOOOOOOOOOOOOOO",
"OOOOOOOOOOOOOOOOOOOOOO+$OOOO-VPVZt*,,*+OOOOOOOOOOOOOOOOOOOOOOOOO",
"OOOOOOOOOOOOOOOOOOO+#$;;>=$X$tdai<+o7,*++++OOOOOO<jk2OOOOOOOOOOO",
"OOOOOOOOOOOOOOOOOO$wccBBBuw6>>>1><oo,,.o66&OOO&#2zAWWz4+OOOOOOOO",
"OOOOOOOOOOOOOOOOOO-ucDVBBuwwu;* ,ttsarX=auw-&5xMzvgPWWz2OOOOOOOO",
"OOOOOOOOOOOOOOOOOO+-yBGGBdwwuuuettggMa7=uauu6;zAgVNZPZ0%OOOOOOOO",
"OOOOOOOOOOOOOOOOOO+;uBVGVVBu;$wBaitt,5>7dMauywxPPZMiy7%OOOOOOOOO",
"OOOOOOOOOOOOOOOOOO#eBBVAAVBx;+*6t7,,>5.=yuuaw0xYPFi<&+OOOOOOOOOO",
"OOOOOOOOOOOOOOOOOO+$--;euGVw*+$*-# o>aw==**5*;wFKy1o@@OOOOOOOOOO",
"OOOOOOOOOOOOOOOOOOOO+O#$;;cBu;$ OOOO-ww:66#*$;6y0&+OOOOOOOOOOOOO",
"OOOOOOOOOOOOOOOOOOOOOOOO$;;yucu;oOOO..=5uw5#+O#-.+OOOOOOOOOOOOOO",
"OOOOOOOOOOOOOOOOOO@@#---*;rruVu;+OOOO+.*uww3+OOOOOOOOOOOOOOOOOOO",
"OOOOOOOOOOOOO+#+OO0VDVBBcu00euc7#OO+$eeuDDFN4OOOOOOOOOOOOOOOOOOO",
"OOOOOOOOOOO@9xu;80cAPPPPADu;;;8;&OO-7DAUTTTTU42+OOOOOOOOOOOOOOOO",
"OOOOOOOOOO+uDAAFDDVDPPTPPAu$+OO#+OO#;DGAYTQQ!TM3%OOOOOOOOOOOOOOO",
"OOOOOOOOO#-yDDPADDVVDDAPPUce##-+OOOO;ucDVDYTAYDxy+OOOOOOOOOOOOOO",
"OOOOOOOOO@;ycccVDBcVVBBDUAVc9wa9+OOO#0xccVDcMFx0%+OOOOOOOOOOOOOO",
"OOOOOOOO+-;euuucxuucccxuew0;;5-&OO+$&-euyux;;5-+O+0z3%@O+2-&++OO",
"OOOOOO4kyy;$#;6ue;;ye;;$++++#$OO+$-$#--&#$-@OOOO<qMFMvxkkvz9-@OO",
"OOOOOOkzaz;9-*-&$#O-;+O#OOOO+@OOO++OO+@OOOOOOOO+0yvFPUYYFMz3&+OO",
"OOOO&0aMfiuay5-++#+OOOOOOOO+-;+OOOOOOOOOOOOOOOOO#5yMFMFFMj-+OOOO",
"O@22rgMMMfaadMy0ecl8OOOOOOOO+OOOOOOOOOOOOOOOOOOO+&3yuzizz2OOOOOO",
"#6jytiaggMgMMVVgDDPAl0+OOOOOOOOOOOOOOO++OOOOOOOOO+#&<0qq0&OOOOOO",
"#5qyrtiaMMagMZZVVDAPTV$OO+OOOOOOOOOOOO+#OOOOOOOOOOOO+&,<+OOOOOOO",
"OO$;5566<-*6yyffBcVATPu09+OOOOOOOOOOOOOOOOOOOOOOOOOOO+@OOOOOOOOO",
"OOOO+++OOOO++&6tuucBGPVu&+OOOOOOOOOOOOOOOOOOOOOOOOOOOOOOOOOOOOOO",
"OOOOOOOOOOO#O&66ewywuuu;OOOOOOOOOOOOOOOOOOOOOOOOOOOOOOOOOOOOOOOO",
"OOOOOOOOOOOO+*ryu;;$$--+OOOOOOOOOOOOOOOOOOOOOOOOOOOOOOOOOOOOOOOO",
"OOOOOOOOOOOOO@-08+OOOOOOOOOOOOOOOOOOOOOOOOOOOOOOOOOOOOOOOOOOOOOO",
"OOOOOOOOOOOOOOO@OOOOOOOOOOOOOOOOOOOOOOOOOOOOOOOOOOOOOOOOOOOOOOOO"
};
