/* XPM */
static char *cloud1[] = {
/* columns rows colors chars-per-pixel */
"64 63 100 2 ",
"   c #95B6CF",
".  c #9AB7CE",
"X  c #82B2D7",
"o  c #8BB4D5",
"O  c #8BB6D8",
"+  c #8EB8D8",
"@  c #92B6D3",
"#  c #99B7D1",
"$  c #94B8D5",
"%  c #9BBAD3",
"&  c #92BAD9",
"*  c #9ABDD9",
"=  c #A3BBCD",
"-  c #ABBECD",
";  c #A3BDD3",
":  c #AABFD2",
">  c #9AC1DE",
",  c #ADC1CD",
"<  c #B3C4CE",
"1  c #B9C6CD",
"2  c #BCC9CE",
"3  c #A6C0D2",
"4  c #ADC1D3",
"5  c #A4C2DA",
"6  c #AAC5DA",
"7  c #ADC9DE",
"8  c #B9C7D2",
"9  c #B6C8D5",
"0  c #BCCAD4",
"q  c #B0C6D8",
"w  c #B3C9DB",
"e  c #BCCCD9",
"r  c #B5CDE1",
"t  c #B9CFE2",
"y  c #BDD2E3",
"u  c #C3CDCF",
"i  c #C3CED4",
"p  c #C2CED9",
"a  c #C5D1D6",
"s  c #CBD2D4",
"d  c #C5D1DA",
"f  c #CBD4DB",
"g  c #CDD6D9",
"h  c #CED7DA",
"j  c #CCD5DC",
"k  c #CED8DD",
"l  c #D1D5D6",
"z  c #D4D8D7",
"x  c #D2D7DA",
"c  c #D1D9DA",
"v  c #D0D8DC",
"b  c #D3DBDC",
"n  c #D3DADF",
"m  c #D5DADE",
"M  c #DADDDD",
"N  c #D9DEDF",
"B  c #DAE0DE",
"V  c #DBE1DF",
"C  c #DDE0DE",
"Z  c #E1E3DF",
"A  c #C2D4E3",
"S  c #C9D7E3",
"D  c #CAD9E5",
"F  c #D4DBE0",
"G  c #D6DDE1",
"H  c #DADEE2",
"J  c #D5DFE8",
"K  c #D8DFE8",
"L  c #D7E0E1",
"P  c #DFE4E1",
"I  c #DDE2E4",
"U  c #D6E3EB",
"Y  c #DCE4EB",
"T  c #DEE8ED",
"R  c #E0E5E1",
"E  c #E1E6E3",
"W  c #E3E6E7",
"Q  c #E8E7E3",
"!  c #E3E8E4",
"~  c #E7EAE7",
"^  c #E7E9E9",
"/  c #E9EBE9",
"(  c #EAECEA",
")  c #EBEDEA",
"_  c #F0ECE7",
"`  c #F1EFEA",
"'  c #EEF0EC",
"]  c #EEF1EC",
"[  c #F3F3ED",
"{  c #F1F2EF",
"}  c #F8F6EE",
"|  c #F9F9EE",
" . c #E4ECF1",
".. c #E8EFF3",
"X. c #EDF2F3",
"o. c #F3F5F0",
"O. c #F8F7F2",
"+. c #F6F8F4",
"@. c #FAFBF4",
"#. c #FDFFFB",
/* pixels */
"> X X X X X X X X X X X X X X X X X X X X X X X X X + @ : a M R R / / R R H I F 8     @ - i s F n a a n B B B a a a a 2 9 3 % o ",
"> X X X X X X X X X X X X X X X X X X X X X X X X X X X # - 8 i F R Q Q R H F v 4 o X X < f B Z B n a s B B B B B B B a 2 % X   ",
"> X o & > % 5 % + o X X X X X X X X X X X X X X X X X X o . - : p v H R H i i i . X X o - i n B I B s k k B B Z ~ B B k 1   o , ",
"> % p n I I I I n e ; o X X X X X ; ; + X X X X X X o X X X o @ - d H R I v = @ o X o - < 0 f n B B s a a s n n B B B k 2 . % , ",
"6 e n R R / / / R D : # % 5 @ X ; f R F t w w : ; # @ X X X o # - , f R R M 8 @ @ # #   - - < i 0 0 0 0 a a a 9 2 0 s u 2 , , 2 ",
"p f I R R / ' [ / W H F n H d 4 f R o.o.` / W f i e q # X @ ; : - 4 i f M M K i < # @ o X   . % $   - , < < < < - - 3 9 9 , a n ",
"I n B B R / X.[ ` / / R R R R K R / [ o./ [ / / H R K D : 8 : 8 i p i 0 i F H F i - . o o X o o o X X   % % 1 a i , o   - 9 k B ",
"K K I I I R / / / ` / R R Q / R W / / / / o.o./ ^ ^ ^ Q H d : i p f i 0 i M R M n i u - . X X X X X X o % - a n k 0 .   - 9 n I ",
"D k M I F f R R / ` ~ R R R ~ R / W / ` o.o.o.o.o.[ ` / / R f 0 0 i n f f H M n s a i i ; X X X X X X X o - f n n a 0 , - , i f ",
"e 8 i d i f H R R ^ R I H I R R R W / / / o.o.o.o.[ o.o./ R M 0 : - i f i n M F i - - % X X X X X X X X @ < 0 d f a 0 , ,   4 4 ",
"5 % : 8 d F F F I I H H F M H H I R R R W / o.o./ / ` / / Q n p : : : 0 0 f M H f <   X X X X X X X o . -   - 4 0 9 - - < ; 4 % ",
"6 ; 4 8 d n f f v f f f F M H H Y R R R R R / o.' o./ / / H e % o o @ # 4 i f f f 0   X X X X X X X X o o X   - , 0 0 0 f d 0   ",
"5 # 8 ; : e f p 0 e 0 a f n n M n R R R R I R ` ' o.X.R I f d q o X X X o # # 8 0 - @ X X X X X X X o o o o o o . 4 d k n f 0 % ",
"r # # o o ; : ; % % % ; 0 f f F n K M R I H H R / / / / I f f 6 X X X X X X o # ; . X X X X X o : % o   e w o @ - 0 i i a i 0 , ",
"J e ; @ o o o X X X X % i f v 0 0 0 d K F f p D H R R R I H I e # o + o X X X o X X X X X X X 8 d p e f R f 4 4 0 f n k i 4 0 8 ",
"I p # ; % X o X X X X X # 4 i 4 # ; ; : : : ; : e f d n n F k e : e F d 6 % X X o o X X X X o : : 0 I R / R I I R I ~ I I H f e ",
"I F d 0 4 4 0 q > o X X X X o $ X X X X $ $ @ o @   3 ; 4 w 0 - : p H K H q X X X X X X X X X @ 4 f I / ' ' ' / [ ' ' ' ^ R I U ",
"R I I F F I I H k r   X X X X X X X X X X X X X X X X X o o % 0 e e : p D : @ X X X X X X X X : p H R / ' ' o.o.' X.O.+.' ' ^ Q ",
"/ R R R ~ / R ' P B q X X X X X X X X X $ X X X X X X X X o % , : # o o @ # @ X X X X X X X + q f B I R ^ ^ [ o.o.@.@.@.+.@.o.@.",
"/ R R R R R / ' | Z r > X X X X X X X X X X X X X X X X X X X o X X X X X X X X X X X X X X @ : d F I I R R R R o./ +.@.@.@.@.@.",
"Z I B B R R ~ [ o.o.~ B f 3 X X X X X X X X X X X X $ 3 % $ $ X X X X X X @ @ X @ : @ @ : @ X : e K K F B R I R ^ ^ ..+.+.O.@.@.",
"~ B B B I R R ' ' o.| P U e o X X X X X X X X X X X o % 0 e 9 $ X X X X X @ : : : : : : ; # ; : 0 d f k B I I I R / / +.o...+.@.",
"U n B B B ~ ^ ' ' o.' | V r o X X X X X X X X X X X X $ 3 % o X o X X X X X @ $ X + X @ @ : : : 0 d d d k K F M R H R / / / ..` ",
"c a k B B I R R P o.| | Z r X X X X X X X X X X X X X X X X X X X X X X X X X X X X X X X ; * ; 4 9 6 9 8 e f k D F f d Y Y ^ / ",
"a 0 e h B B B B ' o.| o.B e 7 3 >   X o $ X X X X X X X X X X X X X X X X X X X X X X X X X X @ # X X X @ : e f f 0 8 4 e v Y H ",
"k q 9 0 a h B B ~ ' ' P ~ B B h u > X X X X X X X X X X X X X X X X X X X X X X X X X X X X X @ X X X X X X @ q q $ $ $ % 5 q f ",
"a 3 , , , q w 0 B B B V B h e , 4 , o X X X X X X X X X X X X X X X X X X X X X X X X X X X X X X X X X X X X X X X X X X X o o ",
"w 3   > $ $   3 < r a a a , > X X o o X X X X X X X X X X X X X X X X X X X X X X X X X X X X X X X X X X X X X X X X X X X X X ",
"> X X X X X X 3 3 , 9 , q > X X X X X X X X X X X X X X X X X X X X X X X X X X X X X X X X X X X X X X X X X X X X X X X X X X ",
"> X X X X X X X $ > $ X o X X X X X X X X X X X X X X X X X X X X X X X X X X X X X X X @ X X X X X X X + + * X X X X X X X X @ ",
"> X X X X X X X X X X X X X X X X X X X X X X X X X X X X X X X X X X X X X X X X X X ; e ; X X + 6 ; t U K Y D & X X X X X X o ",
"> X X X X X X X X X X X X X X X X X X X X X X X X X X X X X X X X X X X X X X X X X r ..X. .r 6 r J W o.O.o.o.o.J & X X X X X X ",
"+ X X X X X X X X X X X X X X X X X X X X X X X X X X X X X X X X X X X X X X X X X t @.@.@.@.@...+.@.@.@.@.@.@.@.D > X X X X X ",
"> X X X X X X X X X X X X X X X X X X X X X X X X X X X X X X X X X X + * 6 + X X > ..@.@.@.@.@.@.@.@.@.@.@.@.@.@.@... .A + X + ",
"> X X X X X X X X X X X X X X X X X X X X X X X X X X X X X + + X X X r ..@.J 5 > T @.@.@.@.@.@.@.@.@.@.@.@.@.@.@.@.@.@.+.r X X ",
"> X X X X X X X X X X X X X X X X X X X X X X X ; D r + + y W  .D 6 r Y @.@.@.@.@.@.@.@.@.@.@.@.@.@.@.@.@.@.@.@.@.@.@.@.@.+.t > ",
"> X X X X X X X X X X X X X X X X X X X X X X ; T +.@.T T +.@.@.@.@.@.@.@.@.@.@.@.@.@.@.@.@.@.@.@.@.@.@.@.@.@.@.@.@.@.@.@.@.@.T ",
"> X X X X X X X X X X X X X X X X X X X X X + D ..@.@.@.@.@.@.@.@.@.@.@.@.@.@.@.@.@.@.@.@.@.@.@.@.@.@.@.@.@.@.@.@.@.@.@.@.@.@.+.",
"+ X X X X X X X X X X X X X X X X X X $ + 6 T @.@.@.@.@.@.@.@.@.@.@.@.@.@.@.@.@.@.@.@.@.@.@.@.@.@.@.@.@.@.@.@.@.@.@.@.@.@.@.+...",
"> X X X X X X X X X X X X X X X X + 6 r A +.@.@.@.@.@.@.@.@.@.@.@.@.@.@.@.@.@.@.@.@.@.@.@.@.@.@.@.@.@.@.@.@.@.@.@.@.@.@.@.@.o...",
"> X X X X X X X X X X X o * X X X $ D ..+.@.@.@.@.@.@.@.@.@.@.@.@.@.@.@.@.@.@.@.@.@.@.@.@.@.@.@.@.@.@.@.@.@.@.@.@.@.@.@.@.@.o.{ ",
"> X X X X X X X o X % 6 D H d w q J @.@.@.@.@.@.@.[ @.@.@.@.@.@.@.@.@.@.@.O.@.@.@.@.@.@.@.@.@.@.@.@.@.@.@.@.@.@.@.@.@.@.@.@.o.{ ",
"> X X X X X X X 9 D R Z ~ O.[ | o.+.@.@.@.@.@.@.O.[ O.O.@.@.@.@.` ` o.@.} } } +.+.@.@.@.@.@.@.@.@.@.@.@.@.@.@.@.@.@.@.@.+.+./ W ",
"> X X X X X X + f ~ Q _ O.O.| O.@.@.@.@.@.@.@.@.[ [ o.| @.@.@.@.` Q ` { ` } } } +.+.@.@.@.@.@.+.@.@.@.@.@.@.@.@.@.@.@.@.o./ H D ",
"> X X X X X > d Z B Z ~ [ O.| | | | O.O.@.@.@.+.[ _ ` [ | | | _ ` / / ` _ [ [ [ } } [ [ } } +.+.@.@.@.+.+.` +.+.+.+.O.+.` H H p ",
"> X X X + > 0 k M Z ~ ~ [ | | | [ } | | @...R Q Z Z Q _ _ } _ _ Q Q Q Q _ _ ` ` [ ` [ } } [ } +.o.{ o.{ ` ^ ` +.+.O.O.W H H v v ",
"> X X o $ % - 0 h Z Z Z [ ` | | | [ } } } ` ^ Q M Z Z Z Z _ Q Z R I R Q Q Q Q ` ` _ _ [ ` ` ` ` ^ ` ` / Q Q Q ^ O.` Q H v v d v ",
"* X X X X o o 4 s n Z Z Z Z ` Q ` _ ` Q ` } ^ R Z Z z Z Z Z Z Z H R Z M Z Z Q R R Z Q Q ` _ _ Q ^ ^ Q ^ Q I I Q I I m l v v d d ",
"> X X X X X X $ 4 0 a f n n Z Z Z Z Z Z Z _ Z Z Z M l M l l l z l x x l l l l l M l M m I Q Q I R I I M M I I m m l a d i i p p ",
"> X X X X X X X o + % 0 2 u s c m m l l l Z M M Z Z M l l l z z l l l l l l a l l l l l l l m l F m m l a v M m i a i i i i i p ",
"> X X X X X X X X X o $ 3 , , 1 u a u l l a s u l l M s l l l u l l u u u u u u u u u u l l l l l u u u e 8 8 8 8 8 e i i i : i ",
"> X X X X X X X X X X o o     - - - - - u u u u u u s u u u u 1 u u u u u u u u i - i u u - u u u 1 i a u 8 - - - : : : ; : ; ; ",
"> X X X X X X X X X o X X X X o     = - - - - - u - - 1 1 1 1 1 - i i - - - u - - - u u - i - i 8 8 - 8 8 - : - % # # # o # o o ",
"& X X X X X X X X X X X X X X X o o o       - = - - - - - - - - - - - - - - - - - - 1 - i - i - - : : ; : : = # o o # X X X X X ",
"> X X X X X X X X X X X X X X o X X X o X o o   =   . = - = = = = = - -       = - - - 1 : : : = - : = # ; o o o X X X X X X X X ",
"> X X X X X X X X X X X X X X X X X X X X X X X . .     =       o o @   X X o o   - - - # ; ; # : : # # o X X X X X X X X X X X ",
"& X X X X X X X X X X X X X X X X X X X X X X X X X X X o X X X X X X X X X X X O % ; ; @ X o o # # X X X X X X X X X X X X X X ",
"> X X X X X X X X X X X X X X X X X X X X X X X X X X X X X X X X X X X X X X X X X % @ X X X X X X X X X X X X X X X X X X X X ",
"> X X X X X X X X X X X X X X X X X X X X X X X X X X X X X X X X X X X X X X X X X X X X X X X X X X X X X X X X X X X X X X X ",
"> X X X X X X X X X X X X X X X X X X X X X X X X X X X X X X X X X X X X X X X X X X X X X X X X X X X X X X X X X X X X X X X ",
"> X X X X X X X X X X X X X X X X X X X X X X X X X X X X X X X X X X X X X X X X X X X X X X X X X X X X X X X X X X X X X X X ",
"> X X X X X X X X X X X X X X X X X X X X X X X X X X X X X X X X X X X X X X X X X X X X X X X X X X X X X X X X X X X X X X X ",
"> X X X X X X X X X X X X X X X X X X X X X X X X X X X X X X X X X X X X X X X X X X X X X X X X X X X X X X X X X X X X X X X "
};
