/* XPM */
static char *cloud0[] = {
/* columns rows colors chars-per-pixel */
"64 64 108 2 ",
"   c #96B7CF",
".  c #99B7CE",
"X  c #9DB9CE",
"o  c #82B2D7",
"O  c #8BB4D5",
"+  c #8FB8D7",
"@  c #8BB6D8",
"#  c #8EB8D8",
"$  c #93B6D3",
"%  c #99B7D1",
"&  c #96B8D4",
"*  c #9CBAD3",
"=  c #94BAD8",
"-  c #A4BBCD",
";  c #AABECD",
":  c #B0BFCC",
">  c #A4BDD2",
",  c #A9BED1",
"<  c #9DC0DE",
"1  c #AEC0CE",
"2  c #B3C3CD",
"3  c #BCC9CE",
"4  c #A6C0D5",
"5  c #ACC2D4",
"6  c #A4C3DC",
"7  c #ABC5DB",
"8  c #AEC8DD",
"9  c #B3C5D3",
"0  c #B9C7D2",
"q  c #B5C8D5",
"w  c #BCCAD4",
"e  c #B2C6D8",
"r  c #B5C9DA",
"t  c #BCCCD9",
"y  c #BFD0DB",
"u  c #AAC7E0",
"i  c #BBD0E0",
"p  c #C1CCCF",
"a  c #C3CED4",
"s  c #C9CFD7",
"d  c #C2CFD9",
"f  c #C5D1D5",
"g  c #CBD2D5",
"h  c #C6D2DA",
"j  c #CFD7DD",
"k  c #CCD6DF",
"l  c #CFD8D9",
"z  c #CED8DC",
"x  c #D1D6D6",
"c  c #D4D9D7",
"v  c #D1D6DA",
"b  c #D3DADB",
"n  c #D0D8DD",
"m  c #D1D8DE",
"M  c #D4DADC",
"N  c #D5DCDE",
"B  c #D6DDDE",
"V  c #DADDDD",
"C  c #DAE1DE",
"Z  c #DBE1DF",
"A  c #DDE1DE",
"S  c #E1E3DF",
"D  c #C3D4E4",
"F  c #CAD6E2",
"G  c #C7D9E7",
"H  c #CDD9E1",
"J  c #CCDCEA",
"K  c #D3DCE3",
"L  c #D4DCE1",
"P  c #D7DDE0",
"I  c #D9DEE0",
"U  c #D9DFE1",
"Y  c #D3DEE8",
"T  c #DAE0E0",
"R  c #DCE1E0",
"E  c #DEE1E0",
"W  c #DDE2E3",
"Q  c #DEE2E2",
"!  c #DFE4E1",
"~  c #D8E0E5",
"^  c #D4E2EC",
"/  c #DBE4EA",
"(  c #E0E6E2",
")  c #E2E7E4",
"_  c #E3E6E5",
"`  c #E5E7E6",
"'  c #E4E9E5",
"]  c #EAEAE6",
"[  c #E5E9E9",
"{  c #E9EBE9",
"}  c #EAEDEA",
"|  c #EBEEEB",
" . c #ECEEEB",
".. c #F0EFE7",
"X. c #F0EFEA",
"o. c #EEF0EC",
"O. c #EFF0ED",
"+. c #F0F2ED",
"@. c #F8F6ED",
"#. c #F9F9EF",
"$. c #E0EAF0",
"%. c #EDF2F4",
"&. c #F3F5F0",
"*. c #F4F5F2",
"=. c #F8F6F2",
"-. c #F7F8F5",
";. c #FAFBF4",
":. c #F6FAF9",
/* pixels */
"o o o o o o o o o o o o o o o o o o o o o o o o o o o o . : s v ) ) ] ) ) I L I a   o o - a N V A N a f k A A A N k l f 2 1 @ @ ",
"o o o o o o @ o o o o o o o o o o o o o o o o o o o o o $ - : 0 s L I ) ) v v v > o o o ; s N ) ) V v g l A S ' ' Z A N f q O O ",
"o & 7 t h t h r r & $ @ o o o o o @ o o o o o o o o o o o = % > 0 H V ) V s : >   o O . ; 0 j N A A k g f k A A A A A C f X     ",
"> d I Q ) } [ ) L q * @ o o o o % t d 7 @ @ @ $ O @ $ o o o o $ ; 0 L ) ) N ; @ o O O . ; 2 3 g k j N a f f g a b k A l f 2 X 1 ",
"e j Q Q [ [ o.} ) H t e t d = * d I } ) Y L H 0 ; - = o o o = - - > a I ) Q j , - > . .   - ; q 4 1 2 3 w w w 3 2 2 w p 3 1 1 2 ",
"j N Q Q ' o.+.+.] [ I I V Q H d I } *.*.*.X.[ I v F F , $ % , : q w d d v I Q g 0 . @ @ O O O O @ @     ; ; ; q q - .   2 2 q C ",
"N I Q Q ) } o.o.X.} ) ) ) ] ) I ) } } } } *.} } ] ] ) I d 0 : 0 s g a 0 a N ) N v 3 ; .   o o O @ o o O . . 2 j N a & @ . 1 f A ",
"j I Q Q L Q [ } } X.` ) ) ] ] ) } } } X.*.} +.+.X.} ] ) W H t 0 w j a a a V A N N s s 3 . O o o o o o o . . a N N a q 4 1 2 w N ",
"d v N L w v I ) } ] ) W ) ) ) [ ` ` } X.X.*.*.+.*.*.} } } ) j w : 0 j j H v I N s 0 3 q > @ o o o o o o o > a v j j a 2 1 - q w ",
"> q w w H L I ) ) ) W I I N E W Q ` ` } } +.*.O.X.+.+.+.X.' N h : , 0 a a s I N s : . % o o o o o o o @ $ , : 3 f a q ; 2 > ; ; ",
"$ - q 0 v v v L I L L I V N V I I ` ) ) } } } *.X.} } } ] ) k q - - > q a v N N v 0 - o o o o o o o @ . . $ $ : w 2 q - q q q ; ",
"- , ; q j H H v s d s v L L V I ) I Q Q ) ) } X.} *.] ] ) N t & o @ o @ $ 0 a d s 0 - o o o o o o o o o o o @ $ - 1 a h j j j ; ",
"@ > , * ; t d 0 0 q 0 t v v L L Q Q Q ) I I ` } *.*.} } Q j h 5 o o o o o $ O - q : $ o o o o o o o O O $ $ @ @ . - w s j v h 4 ",
", , $ o @ % % $ @ @ $ > a j v g H H L Q ` I I I ` } } ) L N k q @ o o o o o @ $ $ $ o o o o o @ q q %   t v > $ > q d d w q 0 3 ",
"F , $ $ @ o o o o o o > w N h 0 ; t d j h d t d I I I ) A Q C h - = = = @ o o @ o @ o o o o o ; d 0 v j ) L d t a N I I H w 0 0 ",
"L e , , $ $   @ o o o @ $ > q > * $ $ $ , > - > , t d d k k k 2 ; d I I d , o o o @ o o o o o > > q L ) X.} ) L ) ) ] } ) ' I k ",
"I v j 0 q d d e < @ o o o o O o o o o o O O O o @       4 4 4 q , t v I I : @ o o o o o o o o = , j I [ o.*.+.+.} o.o.o.} } ' ) ",
"Q ) I N I ) W ) b r @ o o o o o o o o o O o o o o o o o @ @ & 3 t e , e d : $ o o o o o o o o > d j ) ) } } o.+.*.*.*.-.*.+.} } ",
") Q ) ) ' ' X.} Z Z < @ o o o o o o o o @ o o o o o o o o O   - > $ o O @ $ @ o o o o o o o @ > d V W ) ) ) } o.*.*.-.;.;.;.:.:.",
") ) Q ) ' ' } +.} C q < @ o o o o o o o @ o o o o o o o o o o o o o o o o o o o o o @ o @ @ @ > t L L I Q Q ) [ [ o.*.;.:.:.:.:.",
"C C Q C ) ) ) +.&.&.' k k < o o o o o o o o o o o o   4 4 4 < O o o o o o $ $ $ = > % % , % @ < t v N L I Q Q Q ) [ } *.;.;.;.;.",
"C C C A ) ) } X.&.&.&.} k q o o o o o o o o o o o o o   q 2 2   @ o o o o $ , , , , > % > % > : t h h j N I Q Q ) ) ` %.*.+.o.*.",
"k k V A V ] } } o.&.&...b < o o o o o o o o o o o o o   4 @ o o o o o o o o o @ @ o @ @ @ > , , e h d d j j N N I Q Q ) [ } } %.",
"y f N A A I ) } ..&.&...A < o o o o o o O o o o o o o o o @ o o o o o o o o o o o o o o o % % % > 5 4 r 4 w h j k H h h F Q ' [ ",
"3 y y l A C A Z o.&.&.} ~ y 8 q 4 @ o @ @ @ o o o o o o o o o o o o o o o o o o o o o o o o o @ @ @ o o @ % 7 d v t q q q d L I ",
"y 2 q 3 f k A A } o.} } Z Q C h 2 < o o o o o o o o o o o o o o o o o o o o o o o o o o o o o @ @ o o o o o @ > r & @ $ @ * 7 t ",
"q 1 2 2 1 q y f b C A C N f q q 4 1 o o o o o o o o o o o o o o o o o o o o o o o o o o o o o o o o o o o o o o o o o o @ o o @ ",
"4   @ @   @   1 2 y f f f 2 o o o O o o o o o o o o o o o o o o o o o o o o o o o o o o o o o o o o o o o o o o o o o o o o o o ",
"o o o o o o o 4 5 q 2 2 5 o o o o o o o o o o o o o o o o o o o o o o o o o o o o o o o o o o o o o o o o o o o o o o o o o o o ",
"o o o o o o o o @ @ @ @ o o o o o o o o o o o o o o o o o o o o o o o o o o o o o o o o @ @ o o o o o o @ = = = o o o o o o o @ ",
"o o o o o o o o o o o o o o o o o o o o o o o o o o o o o o o o o o o o o o o o o o o > r : o o @ , > 7 Y I I I * o o o o o o o ",
"o o o o o o o o o o o o o o o o o o o o o o o o o o o o o o o o o o o o o o o o o o < $.O.*.D 7 7 Y / } :.:.:.*.) u o o o o o o ",
"o o o o o o o o o o o o o o o o o o o o o o o o o o o o o o o o o o o o o o o o o o u :.:.:.:.:.O.:.:.:.:.:.:.:.:.O.< @ o o o o ",
"o o o o o o o o o o o o o o o o o o o o o o o o o o o o o o o o o o o @ = 4 o o o = / :.:.:.:.:.:.:.:.:.:.:.:.:.:.:.:.O.J < o o ",
"o o o o o o o o o o o o o o o o o o o o o o o o o o o o o o # @ o o o u O.:./ u * J :.:.:.:.:.:.:.:.:.:.:.:.:.:.:.:.:.:.:.Y @ o ",
"o o o o o o o o o o o o o o o o o o o o o o o o 4 J u o @ i ) [ D 4 u / :.:.:.:.:.:.:.:.:.:.:.:.:.:.:.:.:.:.:.:.:.:.:.:.:.:.Y u ",
"o o o o o o o o o o o o o o o o o o o o o o o 7 ^ :.-.I ^ *.:.:.:.:.:.:.:.:.:.:.:.:.:.:.:.:.:.:.:.:.:.:.:.:.:.:.:.:.:.:.:.:.:.:.",
"o o o o o o o o o o o o o o o o o o o o o o = F *.:.:.:.:.:.:.:.:.:.:.:.:.:.:.:.:.:.:.:.:.:.:.:.:.:.:.:.:.:.:.:.:.:.:.:.:.:.:.:.",
"o o o o o o o o o o o o o o o o o o o @ = 7 ^ :.:.:.:.:.:.:.:.:.:.:.:.:.:.:.:.:.:.:.:.:.:.:.:.:.:.:.:.:.:.:.:.:.:.:.:.:.:.:.:.:.",
"o o o o o o o o o o o o o o o o o @ 7 e F ;.:.:.:.:.:.:.:.:.:.:.:.:.:.:.:.:.:.:.:.:.:.:.:.:.:.:.:.:.:.:.:.:.:.:.:.:.:.:.:.;.;.:.",
"o o o o o o o o o o o o @ = o o o = L o.*.:.:.:.-.:.:.;.;.:.:.:.:.:.:.:.:.:.:.:.:.:.:.:.:.:.:.:.:.:.:.:.:.:.:.:.:.:.:.:.:.:.;.*.",
"o o o o o o o o o o = 7 F H t > e I :.:.:.:.:.:.;.;.;.:.:.:.:.;.:.:.:.:.:.;.:.:.:.:.:.:.:.:.:.:.:.:.:.:.:.:.:.:.:.:.:.:.:.:.@.X.",
"o o o o o o o o q h V ' X.+.+.} o.;.;.:.:.:.:.:.;.+.;.;.:.:.:.;.X.X.;.;.@.;.;.;.;.;.:.:.:.:.:.:.:.:.:.:.:.:.:.:.:.:.:.:.:.;.+.} ",
"o o o o o o o @ N ' } o.+.;.;.;.:.:.;.:.:.:.:.:.+...+.;.:.:.:.;.X.} X.X.@.@.X.@.;.@.;.;.:.:.:.;.:.:.:.:.:.:.:.:.:.:.:.:.;.X.} Q ",
"o o o o o @ 4 h A ' ' ..@.;.;.;.;.;.@.;.:.;.:.;.+.] ..@.@.@.@.@.X.X.......X.X.@.@.X.@.@.;.;.;.;.:.;.:.:.;.;.;.:.:.:.;.;.X.] I F ",
"o O o o @ 4 f L S S S ] &.@.@.@...@.;.;.;.X.} ` S ] ..+...@.@...` ` ) X...X.X.X.X.@.X.@.@.X.X.;.;.X.@.@.X.X.X.X.;.;.;.X.} I N H ",
"o o o @ & > 4 v A S S S ..@.@.@.@.@.@.@.@.X.} ) S S S ....S ..S ) S ] ] ..............X.X.X.X.X.X.X.X.X.X.E ) } X.;.X.) L I v s ",
"o o o @ @ * & w b C S S o.......+.....X...] ] ) S b S S S S S E E V V V A S ) ) ) [ ..] X.X...X.} } ) } ` ) I ` ` ) Q I v j s s ",
"o o o o o o O . w g g c V S S S S ] S S ......S V c c E c c c c c M c c c c c V V V V E ) ) ] ) ) S S W N I S ) I v F j d d s h ",
"o o o o o o O O $ > q p g g b b c S S V V V S S S b E c c c c c c c g c c c c c c c c c c V I V v W V V v v ) v v d d d d 0 s d ",
"o o o o o o o o o @ @ . 1 q p p p p c p c c g c V c c c g c g g c s p g p s p p p p p s s s s v v s s v d 0 d s 0 w w j d d w : ",
"o o o o o o o o o o @ @   . , ; 2 q 3 3 p p p p p p x p c p p p p p p p p p 3 p p p p p p p p a s p p p d d : : : : : : : e : , ",
"o o o o o o o o o o @ @ o @ @ . . - : 2 2 : 2 : p 2 2 p 2 p 3 3 p p 3 3 : 3 2 2 3 : 3 p p 0 0 3 0 0 p : p : : : > % * % = % % @ ",
"o o o o o o o o o o o o o o o @ @ .   . . - - ; : 2 : : : : : : 3 : : : : ; 2 2 : ; : 3 0 p 3 0 p : : > : : , > * $ % @ o @ o o ",
"o o o o o o o o o o o o o o o o o o o @ o .     - X - - : - - - - ; ; - - - - - - - : : : : : : : , > - $ % % % @ @ = @ o o o o ",
"o o o o o o o o o o o o o o o o o o o o o o o o .   X X - X X X     . . @ o @ . . . ; : > - - % > - - % @ o o o o o o o o o o o ",
"o o o o o o o o o o o o o o o o o o o o o o o o o O o   O O o o @ o o o o o o O $ - - - . O $ O . . @ o o o o o o o o o o o o o ",
"o o o o o o o o o o o o o o o o o o o o o o o o o o o o o o o o o o o o o o o o o O - . $ o o o @ @ @ o o o o o o o o o o o o o ",
"o o o o o o o o o o o o o o o o o o o o o o o o o o o o o o o o o o o o o o o o o o O o o o o o o o o o o o o o o o o o o o o o ",
"o o o o o o o o o o o o o o o o o o o o o o o o o o o o o o o o o o o o o o o o o o o o o o o o o o o o o o o o o o o o o o o o ",
"o o o o o o o o o o o o o o o o o o o o o o o o o o o o o o o o o o o o o o o o o o o o o o o o o o o o o o o o o o o o o o o o ",
"o o o o o o o o o o o o o o o o o o o o o o o o o o o o o o o o o o o o o o o o o o o o o o o o o o o o o o o o o o o o o o o o ",
"o o o o o o o o o o o o o o o o o o o o o o o o o o o o o o o o o o o o o o o o o o o o o o o o o o o o o o o o o o o o o o o o ",
"o o o o o o o o o o o o o o o o o o o o o o o o o o o o o o o o o o o o o o o o o o o o o o o o o o o o o o o o o o o o o o o o "
};
