/* XPM */
static char *dark_blue_ocrean[] = {
/* columns rows colors chars-per-pixel */
"64 16 88 1 ",
"  c #074568",
". c #0A476A",
"X c #114D6F",
"o c #0F4E71",
"O c #114F71",
"+ c #145274",
"@ c #1A5575",
"# c #145679",
"$ c #195779",
"% c #16587C",
"& c #1B5A7B",
"* c #235D7C",
"= c #27607E",
"- c #29617F",
"; c #175C80",
": c #1A5E81",
"> c #1D6185",
", c #1F6589",
"< c #236283",
"1 c #2C6582",
"2 c #2B6887",
"3 c #22678A",
"4 c #23698C",
"5 c #306784",
"6 c #366D89",
"7 c #386F8A",
"8 c #35708E",
"9 c #3B728D",
"0 c #256E92",
"q c #2B6F91",
"w c #267095",
"e c #297295",
"r c #2B769A",
"t c #2F7A9D",
"y c #357493",
"u c #3B7794",
"i c #347A9B",
"p c #3C7B99",
"a c #41758F",
"s c #427690",
"d c #457A93",
"f c #4A7E96",
"g c #427D98",
"h c #3E86A6",
"j c #4D8097",
"k c #44819E",
"l c #51849A",
"z c #57889E",
"x c #58899F",
"c c #4384A2",
"v c #4E88A2",
"b c #448CAC",
"n c #538BA4",
"m c #5B8CA1",
"M c #528EA9",
"N c #5F90A4",
"B c #5591AA",
"V c #5E94AB",
"C c #4E93B1",
"Z c #5895B0",
"A c #5F99B1",
"S c #6090A4",
"D c #6695A8",
"F c #6897AA",
"G c #6398AE",
"H c #6B9BAE",
"J c #629BB3",
"K c #679EB3",
"L c #6A9EB2",
"P c #719FB0",
"I c #6AA7BF",
"U c #72A0B2",
"Y c #74A3B4",
"T c #7CA8B7",
"R c #71A4B8",
"E c #7AA8B8",
"W c #7FAAB9",
"Q c #7DB2C4",
"! c #82ADBB",
"~ c #85B0BD",
"^ c #87B2BF",
"/ c #83B2C3",
"( c #8AB5C2",
") c #8EB8C4",
"_ c #93C1CE",
"` c #9AC2CD",
"' c #96C8D6",
"] c #9EC8D3",
/* pixels */
"'p.....9MD6X..O>o+ll+.>>...dn8e....%2R&..+,>bY@.#w44+fsO4>:o.fs+",
"cId+...+0<dj&..&>.O5m+#>+...<m4>X.o..gf.....:bd..+#>t+f+#3>e+Ol+",
"oi8x$..or> 1n..+w.. 5f.<&....9g4+....%Dq....o0n&....3>55 ..>0.19",
".::5d...%0..96 +r+..Xf++:....+jwX.... pZ.....#cj....#44z+..+4>+m",
"..:>j&...::.+f..:>...1uo,.....jl9+....+Qd+....iQY9X..4rdP9X.&w%6",
"...:cn>+..:4:ma.+&:+X+DjJu....+E/(6... 1Y(9...#if!Y..+t+a!YO.i,.",
"o...+HBh1..#42/Y^9%w>>2DS]c&:o.+>J/1. ..#j!*..X&.&PlO.:>.+YfO#0.",
"2....5Y_)&..++<Mx!+.<4e+.fLc40+..&bJv+.o1euA9O.X<oO5x*.<+XO1z124",
"&+o..sv2*X..&D3..&O.<G&...+fV<...+lI1...1DC4+X.+Jie.++.684#.++9`",
"0>>+.+j<:&o..5M4oo...ufo....8VX....8L&...+jV&..X*jQ+...+nV<....u",
"o#>r+ 59>>r#..d<>>#...zi:O...dk&O...ujooO..yVX...OuG+...+jV&.X..",
". .4>.+lO.:0..1dO>r+..1d:r+..+n33+...vi>o...dc:&...ul++...yVX...",
"Y9O#4>.9d+o4>.OFf+<>..+m+:0...fa:ro..1d%w+..+n3:+...ji4>O..dk&&+",
"d!Y.>r.+F(6%e&.*H(g>>..*S84>..&Y*>>..+Ds>w...j9+e+..1d+:+..+n3>r",
" *Yf$r+..l!-r>...l/ir..Xl`u0%..*!g3>..*F8,>..&ESe>...Hd&4...j9.#",
"...9Np:...-xne....-FJ+...fHb:...n)yr...*)80%..+lu3>..1E/i>..&!N*"
};
